# xmcd CD database file
#
# Track frame offsets:
#	150
#	21352
#	38850
#	62437
#	87470
#	109787
#	128300
#	158495
#	187102
#	204625
#
# Disc length: 3068 seconds
#
# Revision: 0
# Processed by: cddbd v1.5.1PL2 Copyright (c) Steve Scherf et al.
# Submitted via: CDex 1.51
#
DISCID=7d0bfa0a
DTITLE=Hiromi - STRIPTEASE
DYEAR=1995
DGENRE=JPop
TTITLE0=ショック療法
TTITLE1=エラー（ALUBUMMIX）
TTITLE2=立入禁止
TTITLE3=二つの夢
TTITLE4=軽蔑
TTITLE5=指名手配
TTITLE6=発情
TTITLE7=ガーベラ
TTITLE8=素直な悪女
TTITLE9=手のひらの荒野
EXTD=YEAR: 1995
EXTT0=
EXTT1=
EXTT2=
EXTT3=
EXTT4=
EXTT5=
EXTT6=
EXTT7=
EXTT8=
EXTT9=
PLAYORDER=
